<svg xmlns="http://www.w3.org/2000/svg" width="21.5" height="30.5" viewBox="0 0 21.5 30.5"><path d="M22,11a7.93,7.93,0,0,1-.68,3.5L13.86,29.61a2.47,2.47,0,0,1-1,1,2.76,2.76,0,0,1-2.76,0,2.36,2.36,0,0,1-1-1L1.68,14.5A7.93,7.93,0,0,1,1,11,9.41,9.41,0,0,1,4.08,3.93,10.38,10.38,0,0,1,11.5,1a10.38,10.38,0,0,1,7.42,2.93A9.41,9.41,0,0,1,22,11Z" transform="translate(-0.75 -0.75)" fill="#0075fe" stroke="#fff" stroke-width="0.5"/><path d="M17,11A1.13,1.13,0,0,0,15.89,9.9H12.66V6.67a1.16,1.16,0,1,0-2.32,0V9.9H7.11a1.12,1.12,0,0,0,0,2.23h3.23v3.2a1.16,1.16,0,1,0,2.32,0v-3.2h3.23A1.13,1.13,0,0,0,17,11Z" transform="translate(-0.75 -0.75)" fill="#fff" fill-rule="evenodd"/></svg>